<svg xmlns="http://www.w3.org/2000/svg" width="1200" height="310" viewBox="0 0 1200 310" role="img" aria-labelledby="title">
  <title id="title">Tech stack</title>
  <defs>
    <linearGradient id="bg" x1="0" y1="0" x2="1" y2="1">
      <stop offset="0" stop-color="#07111f"/>
      <stop offset="1" stop-color="#121326"/>
    </linearGradient>
    <linearGradient id="accent" x1="0" y1="0" x2="1" y2="0">
      <stop offset="0" stop-color="#4D9FFF"/>
      <stop offset="0.5" stop-color="#00FF94"/>
      <stop offset="1" stop-color="#A855F7"/>
    </linearGradient>
  </defs>
  <rect width="1200" height="310" rx="24" fill="url(#bg)"/>
  <text x="56" y="58" fill="#F8FAFC" font-family="Arial, Helvetica, sans-serif" font-size="34" font-weight="900">TECH STACK</text>
  <rect x="56" y="76" width="300" height="4" rx="2" fill="url(#accent)"/>
  <text x="56" y="112" fill="#8EA0B8" font-family="ui-monospace, SFMono-Regular, Menlo, monospace" font-size="16">backend • frontend • data • infrastructure • workflow</text>

  <g font-family="Arial, Helvetica, sans-serif" font-size="18" font-weight="800" fill="#FFFFFF">
    <g transform="translate(56 142)">
      <rect width="138" height="52" rx="13" fill="#113A67" stroke="#3178C6"/><text x="69" y="33" text-anchor="middle">TS</text>
    </g>
    <g transform="translate(210 142)">
      <rect width="138" height="52" rx="13" fill="#163A20" stroke="#68A063"/><text x="69" y="33" text-anchor="middle">Node.js</text>
    </g>
    <g transform="translate(364 142)">
      <rect width="138" height="52" rx="13" fill="#073743" stroke="#00ADD8"/><text x="69" y="33" text-anchor="middle">Go</text>
    </g>
    <g transform="translate(518 142)">
      <rect width="138" height="52" rx="13" fill="#342016" stroke="#F59E42"/><text x="69" y="33" text-anchor="middle">Rust</text>
    </g>
    <g transform="translate(672 142)">
      <rect width="138" height="52" rx="13" fill="#23344B" stroke="#FFD43B"/><text x="69" y="33" text-anchor="middle">Python</text>
    </g>
    <g transform="translate(826 142)">
      <rect width="138" height="52" rx="13" fill="#0B2F38" stroke="#61DAFB"/><text x="69" y="33" text-anchor="middle">React</text>
    </g>
    <g transform="translate(980 142)">
      <rect width="138" height="52" rx="13" fill="#112B46" stroke="#2496ED"/><text x="69" y="33" text-anchor="middle">Docker</text>
    </g>

    <g transform="translate(133 214)">
      <rect width="138" height="52" rx="13" fill="#2E2615" stroke="#FF9900"/><text x="69" y="33" text-anchor="middle">AWS</text>
    </g>
    <g transform="translate(287 214)">
      <rect width="138" height="52" rx="13" fill="#1C2F52" stroke="#4169E1"/><text x="69" y="33" text-anchor="middle">Postgres</text>
    </g>
    <g transform="translate(441 214)">
      <rect width="138" height="52" rx="13" fill="#163A20" stroke="#47A248"/><text x="69" y="33" text-anchor="middle">MongoDB</text>
    </g>
    <g transform="translate(595 214)">
      <rect width="138" height="52" rx="13" fill="#3A1519" stroke="#DC382D"/><text x="69" y="33" text-anchor="middle">Redis</text>
    </g>
    <g transform="translate(749 214)">
      <rect width="138" height="52" rx="13" fill="#181717" stroke="#6E7681"/><text x="69" y="33" text-anchor="middle">GitHub</text>
    </g>
    <g transform="translate(903 214)">
      <rect width="138" height="52" rx="13" fill="#24264B" stroke="#A855F7"/><text x="69" y="33" text-anchor="middle">CI/CD</text>
    </g>
  </g>
</svg>